{
    "asset" : {
        "generator" : "Khronos glTF Blender I/O v1.5.17",
        "version" : "2.0"
    },
    "scene" : 0,
    "scenes" : [
        {
            "name" : "Scene",
            "nodes" : [
                4
            ]
        }
    ],
    "nodes" : [
        {
            "mesh" : 0,
            "name" : "Cylinder.021",
            "translation" : [
                -0.00039380835369229317,
                -1.7094714641571045,
                -0.011351319961249828
            ]
        },
        {
            "mesh" : 1,
            "name" : "Cylinder.023",
            "translation" : [
                -0.0003937588771805167,
                -1.2973999977111816,
                -0.011350275948643684
            ]
        },
        {
            "mesh" : 2,
            "name" : "Cylinder.024",
            "translation" : [
                0.07345819473266602,
                0.6402459144592285,
                -0.003122004447504878
            ]
        },
        {
            "mesh" : 3,
            "name" : "Cylinder.025",
            "translation" : [
                -0.0003933007246814668,
                1.0554379224777222,
                0.003952615428715944
            ]
        },
        {
            "children" : [
                0,
                1,
                2,
                3
            ],
            "mesh" : 4,
            "name" : "Cylinder.026",
            "scale" : [
                0.7022044062614441,
                0.7022044062614441,
                0.7022044062614441
            ]
        }
    ],
    "materials" : [
        {
            "doubleSided" : true,
            "name" : "PenGlossyPart1",
            "pbrMetallicRoughness" : {
                "baseColorFactor" : [
                    0.3774476647377014,
                    0.3774476647377014,
                    0.3774476647377014,
                    1
                ],
                "roughnessFactor" : 0.2454545497894287
            }
        },
        {
            "doubleSided" : true,
            "name" : "PenBlackpart",
            "pbrMetallicRoughness" : {
                "baseColorFactor" : [
                    0.030713459476828575,
                    0.030713455751538277,
                    0.030713461339473724,
                    1
                ],
                "metallicFactor" : 0
            }
        },
        {
            "doubleSided" : true,
            "name" : "PenGlossyPart1.001",
            "pbrMetallicRoughness" : {
                "baseColorFactor" : [
                    0.05237474665045738,
                    0.05237474665045738,
                    0.05237474665045738,
                    1
                ],
                "roughnessFactor" : 0.2772727310657501
            }
        }
    ],
    "meshes" : [
        {
            "name" : "Cylinder.025",
            "primitives" : [
                {
                    "attributes" : {
                        "POSITION" : 0,
                        "NORMAL" : 1
                    },
                    "indices" : 2,
                    "material" : 0
                }
            ]
        },
        {
            "name" : "Cylinder.026",
            "primitives" : [
                {
                    "attributes" : {
                        "POSITION" : 3,
                        "NORMAL" : 4
                    },
                    "indices" : 2,
                    "material" : 1
                }
            ]
        },
        {
            "name" : "Cylinder.027",
            "primitives" : [
                {
                    "attributes" : {
                        "POSITION" : 5,
                        "NORMAL" : 6
                    },
                    "indices" : 7,
                    "material" : 2
                }
            ]
        },
        {
            "name" : "Cylinder.028",
            "primitives" : [
                {
                    "attributes" : {
                        "POSITION" : 8,
                        "NORMAL" : 9
                    },
                    "indices" : 2,
                    "material" : 1
                }
            ]
        },
        {
            "name" : "Cylinder.029",
            "primitives" : [
                {
                    "attributes" : {
                        "POSITION" : 10,
                        "NORMAL" : 11
                    },
                    "indices" : 2,
                    "material" : 0
                }
            ]
        }
    ],
    "accessors" : [
        {
            "bufferView" : 0,
            "componentType" : 5126,
            "count" : 64,
            "max" : [
                0.11846907436847687,
                0.09420657157897949,
                0.11846857517957687
            ],
            "min" : [
                -0.11846882104873657,
                -0.2157122641801834,
                -0.11846927553415298
            ],
            "type" : "VEC3"
        },
        {
            "bufferView" : 1,
            "componentType" : 5126,
            "count" : 64,
            "type" : "VEC3"
        },
        {
            "bufferView" : 2,
            "componentType" : 5123,
            "count" : 372,
            "type" : "SCALAR"
        },
        {
            "bufferView" : 3,
            "componentType" : 5126,
            "count" : 64,
            "max" : [
                0.11846935749053955,
                0.32692423462867737,
                0.1184699609875679
            ],
            "min" : [
                -0.11846937239170074,
                -0.32692423462867737,
                -0.1184699609875679
            ],
            "type" : "VEC3"
        },
        {
            "bufferView" : 4,
            "componentType" : 5126,
            "count" : 64,
            "type" : "VEC3"
        },
        {
            "bufferView" : 5,
            "componentType" : 5126,
            "count" : 409,
            "max" : [
                0.1046844944357872,
                0.2557596266269684,
                0.10974511504173279
            ],
            "min" : [
                -0.18264171481132507,
                -0.5157790184020996,
                -0.1078353300690651
            ],
            "type" : "VEC3"
        },
        {
            "bufferView" : 6,
            "componentType" : 5126,
            "count" : 409,
            "type" : "VEC3"
        },
        {
            "bufferView" : 7,
            "componentType" : 5123,
            "count" : 2424,
            "type" : "SCALAR"
        },
        {
            "bufferView" : 8,
            "componentType" : 5126,
            "count" : 64,
            "max" : [
                0.06580141931772232,
                0.18158356845378876,
                0.0658016949892044
            ],
            "min" : [
                -0.06580141931772232,
                -0.18158356845378876,
                -0.0658016949892044
            ],
            "type" : "VEC3"
        },
        {
            "bufferView" : 9,
            "componentType" : 5126,
            "count" : 64,
            "type" : "VEC3"
        },
        {
            "bufferView" : 10,
            "componentType" : 5126,
            "count" : 64,
            "max" : [
                0.10192187875509262,
                1.0338830947875977,
                0.10192196816205978
            ],
            "min" : [
                -0.10192205756902695,
                -0.9860431551933289,
                -0.10192198306322098
            ],
            "type" : "VEC3"
        },
        {
            "bufferView" : 11,
            "componentType" : 5126,
            "count" : 64,
            "type" : "VEC3"
        }
    ],
    "bufferViews" : [
        {
            "buffer" : 0,
            "byteLength" : 768,
            "byteOffset" : 0
        },
        {
            "buffer" : 0,
            "byteLength" : 768,
            "byteOffset" : 768
        },
        {
            "buffer" : 0,
            "byteLength" : 744,
            "byteOffset" : 1536
        },
        {
            "buffer" : 0,
            "byteLength" : 768,
            "byteOffset" : 2280
        },
        {
            "buffer" : 0,
            "byteLength" : 768,
            "byteOffset" : 3048
        },
        {
            "buffer" : 0,
            "byteLength" : 4908,
            "byteOffset" : 3816
        },
        {
            "buffer" : 0,
            "byteLength" : 4908,
            "byteOffset" : 8724
        },
        {
            "buffer" : 0,
            "byteLength" : 4848,
            "byteOffset" : 13632
        },
        {
            "buffer" : 0,
            "byteLength" : 768,
            "byteOffset" : 18480
        },
        {
            "buffer" : 0,
            "byteLength" : 768,
            "byteOffset" : 19248
        },
        {
            "buffer" : 0,
            "byteLength" : 768,
            "byteOffset" : 20016
        },
        {
            "buffer" : 0,
            "byteLength" : 768,
            "byteOffset" : 20784
        }
    ],
    "buffers" : [
        {
            "byteLength" : 21552,
            "uri" : "data:application/octet-stream;base64,"
        }
    ]
}
